<svg xmlns="http://www.w3.org/2000/svg" width="180" height="40" viewBox="0 0 180 40" fill="none">
  <path d="M29.76 11.12H26.6V28H29.76V11.12Z" fill="#1E50A0"/>
  <path d="M46.336 19.52C46.336 17.04 44.576 15.44 41.936 15.44C39.296 15.44 37.536 17.04 37.536 19.52C37.536 22 39.296 23.6 41.936 23.6C44.576 23.6 46.336 22 46.336 19.52ZM34.376 19.52C34.376 15.52 37.536 12.72 41.936 12.72C46.336 12.72 49.496 15.52 49.496 19.52C49.496 23.52 46.336 26.32 41.936 26.32C37.536 26.32 34.376 23.52 34.376 19.52Z" fill="#1E50A0"/>
  <path d="M62.9986 16.24C61.9186 16.24 60.9586 16.64 60.3186 17.4V13H57.1586V26H60.3186V20.76C60.3186 19.32 61.1986 18.52 62.3986 18.52C63.5186 18.52 64.2786 19.24 64.2786 20.68V26H67.4386V19.68C67.4386 17.4 65.6786 16.24 62.9986 16.24Z" fill="#1E50A0"/>
  <path d="M77.0522 26H80.2122V13H77.0522V26Z" fill="#1E50A0"/>
  <path d="M89.0947 26.32C93.0947 26.32 95.5347 24 95.5347 20.64V13H92.3747V20.44C92.3747 22.2 91.1347 23.44 89.0947 23.44C87.0947 23.44 85.8547 22.2 85.8547 20.44V13H82.6947V20.64C82.6947 24 85.1347 26.32 89.0947 26.32Z" fill="#1E50A0"/>
  <path d="M109.55 21.24H103.75L103.99 19.96C104.19 18.76 105.03 17.8 106.35 17.8C107.65 17.8 108.53 18.8 108.71 19.96L109.55 21.24ZM112.55 24.48C112.03 22.64 111.31 20.68 110.67 18.56C110.19 16.96 109.03 15.44 106.35 15.44C103.67 15.44 102.51 16.96 102.03 18.56C101.39 20.68 100.67 22.64 100.15 24.48C99.9858 25.16 99.8218 25.76 99.6978 26.32H102.87C102.95 25.92 103.03 25.52 103.11 25.08L103.23 24.36H110.07L110.19 25.08C110.27 25.52 110.35 25.92 110.43 26.32H113.59C113.47 25.76 113.31 25.16 112.55 24.48Z" fill="#1E50A0"/>
  <path d="M122.381 26.32C126.381 26.32 129.381 23.52 129.381 19.52C129.381 15.52 126.381 12.72 122.381 12.72C118.381 12.72 115.381 15.52 115.381 19.52C115.381 23.52 118.381 26.32 122.381 26.32ZM122.381 23.6C120.061 23.6 118.541 22 118.541 19.52C118.541 17.04 120.061 15.44 122.381 15.44C124.701 15.44 126.221 17.04 126.221 19.52C126.221 22 124.701 23.6 122.381 23.6Z" fill="#1E50A0"/>
  <path d="M141.566 16.56H138.406V21.8C138.406 23.24 137.526 24.04 136.326 24.04C135.206 24.04 134.446 23.32 134.446 21.88V16.56H131.286V22.88C131.286 25.16 133.046 26.32 135.726 26.32C136.806 26.32 137.766 25.92 138.406 25.16V26H141.566V16.56Z" fill="#1E50A0"/>
  <path d="M150.583 15.44C149.303 15.44 148.263 15.92 147.583 16.8V16.56H144.423V26H147.583V20.16C147.583 18.72 148.503 18.04 149.783 18.04C151.063 18.04 151.903 18.72 151.903 20.16V26H155.063V19.16C155.063 16.88 153.383 15.44 150.583 15.44Z" fill="#1E50A0"/>
  <path d="M165.711 26.32C169.631 26.32 172.591 23.56 172.591 19.52C172.591 15.48 169.631 12.72 165.711 12.72C163.471 12.72 161.551 13.72 160.591 15.24V13H157.431V32.8H160.591V24.12C161.551 25.52 163.471 26.32 165.711 26.32ZM165.111 23.6C162.791 23.6 160.951 22 160.951 19.52C160.951 17.04 162.791 15.44 165.111 15.44C167.471 15.44 169.431 17.04 169.431 19.52C169.431 22 167.471 23.6 165.111 23.6Z" fill="#1E50A0"/>
  <path d="M10.5 19.39L6.75 23.74L3 19.39L6.75 15.04L10.5 19.39Z" fill="#E63946"/>
  <path d="M17.25 11.39L13.5 15.74L9.75 11.39L13.5 7.04L17.25 11.39Z" fill="#E63946"/>
  <path d="M17.25 27.39L13.5 31.74L9.75 27.39L13.5 23.04L17.25 27.39Z" fill="#E63946"/>
  <path d="M24 19.39L20.25 23.74L16.5 19.39L20.25 15.04L24 19.39Z" fill="#E63946"/>
</svg>